<svg width="835" height="994" viewBox="0 0 835 994" fill="none" xmlns="http://www.w3.org/2000/svg">
<g clip-path="url(#clip0_3369_404)">
<path d="M828.89 914.57L666.819 606.965L828.89 299.359C837.524 282.968 836.969 263.703 827.392 247.839C817.816 231.975 801.038 222.499 782.514 222.499H578.485V116.177C578.485 51.6034 525.953 -0.924561 461.394 -0.924561H51.5618C33.0373 -0.924561 16.2598 8.55117 6.68325 24.4149C-2.89331 40.2787 -3.44793 59.5445 5.18576 75.9352L167.257 383.541L5.18576 691.146C-3.44793 707.537 -2.89331 726.803 6.68325 742.666C16.2598 758.53 33.0373 768.006 51.5618 768.006H255.591V874.319C255.591 938.893 308.114 991.421 372.682 991.421H782.514C801.038 991.421 817.816 981.945 827.392 966.081C836.969 950.217 837.524 930.952 828.89 914.561V914.57ZM51.5618 766.157C33.6843 766.157 17.4985 757.023 8.26394 741.714C-0.970601 726.405 -1.50674 707.823 6.82191 692.006L169.124 383.966L169.355 383.531L6.82191 75.0755C-1.50674 59.2579 -0.970601 40.6762 8.26394 25.3671C17.4985 10.0673 33.6843 0.924363 51.5618 0.924363H461.394C524.936 0.924363 576.636 52.6295 576.636 116.177V222.499H372.691C308.123 222.499 255.6 275.027 255.6 339.601V766.157H51.5618ZM576.636 224.348V650.904C576.636 714.461 524.936 766.157 461.394 766.157H257.449V339.601C257.449 276.053 309.149 224.348 372.691 224.348H576.636ZM825.812 965.138C816.577 980.447 800.391 989.581 782.514 989.581H372.682C309.14 989.581 257.439 937.876 257.439 874.328V768.015H461.385C525.953 768.015 578.476 715.478 578.476 650.914V224.348H782.505C800.382 224.348 816.568 233.491 825.802 248.791C835.037 264.1 835.573 282.682 827.244 298.499L664.942 606.539L664.711 606.974L827.235 915.439C835.573 931.257 835.028 949.838 825.793 965.147L825.812 965.138Z" fill="#EF5520" fill-opacity="0.4"/>
</g>
<defs>
<clipPath id="clip0_3369_404">
<rect width="835" height="994" fill="white"/>
</clipPath>
</defs>
</svg>
